<svg width="184" height="148" viewBox="0 0 184 148" fill="none" xmlns="http://www.w3.org/2000/svg">
<path d="M105.859 83.8641C104.365 84.1556 102.909 84.6955 101.583 85.4499C98.1285 87.3674 96.1186 90.1045 97.0942 91.5629C98.0698 93.0213 101.661 92.6483 105.116 90.7308C106.46 90.003 107.654 89.0729 108.624 87.9979C109.074 87.4785 109.155 86.8314 108.83 86.3476L107.563 84.453C107.241 83.9677 106.572 83.7369 105.859 83.8641Z" fill="#D5D6DB"/>
<path d="M97.1832 58.0016C96.0998 58.2131 95.0444 58.6048 94.0828 59.1519C91.5784 60.542 90.1202 62.5266 90.827 63.5832C91.5338 64.6398 94.139 64.3691 96.6431 62.9792C97.6176 62.4512 98.4831 61.7764 99.1869 60.9969C99.513 60.6204 99.5714 60.1516 99.3361 59.8008L98.4184 58.429C98.1849 58.0772 97.7002 57.9095 97.1832 58.0016Z" fill="#D5D6DB"/>
<path d="M83.0885 59.0847C82.8473 59.0612 82.5901 59.1172 82.3671 59.2413L76.4844 62.5068C75.9923 62.7791 75.7954 63.3035 76.045 63.6783C76.1021 63.7641 76.1802 63.8375 76.2751 63.894L90.7742 72.5984L110.39 61.7097L83.0885 59.0847Z" fill="#029BC5"/>
<path d="M145.1 57.8539L91.7174 87.1263L60.1349 98.0732L44.0282 100.862L42.2562 98.2394L131.237 50.3848C133.888 48.9525 136.843 48.0734 139.8 47.8367C141.095 47.7391 142.374 47.7766 143.608 47.9479C144.701 48.0923 145.738 48.3708 146.688 48.7752C147.748 49.2334 149.766 49.2863 150.42 50.1992C150.422 50.1977 151.964 54.3889 145.1 57.8539V57.8539Z" fill="#E1E6E9"/>
<path d="M92.4251 83.253L69.3314 115.321C69.0429 115.772 69.2142 116.276 69.7134 116.448C70.0198 116.553 70.3948 116.512 70.7098 116.337L76.588 113.089C77.7186 112.464 78.7196 111.67 79.5294 110.756L124.315 64.8925L92.4251 83.253Z" fill="#029BC5"/>
<path d="M34.1502 82.1824C33.765 82.0677 33.3065 82.1272 32.9195 82.3419L28.0605 85.0374C27.3985 85.4044 27.1346 86.11 27.4711 86.6137C27.5352 86.7094 27.6184 86.7937 27.7182 86.8631L41.332 96.3603L55.6457 88.5726L34.1502 82.1824Z" fill="#029BC5"/>
<path d="M45.8952 98.0723L38.5679 107.011C38.4604 107.14 38.4857 107.301 38.6242 107.371C38.7242 107.422 38.8606 107.413 38.9714 107.348L43.5123 104.841C43.5476 104.822 43.5795 104.798 43.6059 104.77L54.3123 93.4307L45.8952 98.0723Z" fill="#029BC5"/>
<path d="M142.731 48.3333C141.461 48.1556 140.144 48.1177 138.81 48.2198C137.511 49.8017 136.681 51.5788 136.402 53.3737C136.382 53.7343 136.716 53.9938 137.148 53.9534C137.282 53.9407 137.416 53.8996 137.536 53.8337L145.904 49.1923C144.926 48.7721 143.857 48.4829 142.731 48.3333Z" fill="#029BC5"/>
<path d="M124.495 56.8683L129.958 53.8627L135.047 61.4021L129.584 64.4077L124.495 56.8683Z" fill="#D5D6DB"/>
<path d="M121.057 59.8501C120.399 60.2134 120.136 60.9117 120.47 61.4096L121.011 62.2163C121.368 62.7016 122.181 62.7869 122.828 62.4068C123.444 62.0448 123.692 61.3869 123.395 60.9011L122.853 60.0944C122.519 59.5969 121.716 59.4874 121.057 59.8501V59.8501Z" fill="#3A556A"/>
<path d="M116.147 62.5064C115.488 62.8697 115.225 63.568 115.559 64.0659L116.101 64.8726C116.457 65.3579 117.27 65.4432 117.917 65.0631C118.533 64.7012 118.781 64.0433 118.484 63.5575L117.943 62.7507C117.609 62.2534 116.805 62.1439 116.147 62.5064V62.5064Z" fill="#3A556A"/>
<path d="M111.234 65.1636C110.577 65.5274 110.315 66.2248 110.649 66.7223L111.19 67.529C111.546 68.0142 112.36 68.0996 113.007 67.7195C113.622 67.3575 113.87 66.6996 113.574 66.2139L113.032 65.4072C112.698 64.9093 111.893 64.8002 111.234 65.1636V65.1636Z" fill="#3A556A"/>
<path d="M106.324 67.8199C105.666 68.1836 105.404 68.8811 105.738 69.3786L106.279 70.1853C106.636 70.6706 107.449 70.7559 108.096 70.3758C108.712 70.0138 108.96 69.3559 108.663 68.8701L108.121 68.0634C107.787 67.5656 106.982 67.4566 106.324 67.8199V67.8199Z" fill="#3A556A"/>
<path d="M101.414 70.4764C100.756 70.8403 100.493 71.5381 100.827 72.0358L101.369 72.8428C101.703 73.3404 102.508 73.4493 103.166 73.0862C103.824 72.7231 104.087 72.0254 103.753 71.5279L103.211 70.7208C102.878 70.2229 102.074 70.1132 101.415 70.4757C101.414 70.476 101.414 70.4761 101.414 70.4764Z" fill="#3A556A"/>
<path d="M96.5031 73.1328C95.8451 73.4967 95.5827 74.1944 95.9169 74.6921L96.4587 75.4992C96.7928 75.9967 97.5971 76.1057 98.2553 75.7426C98.9135 75.3794 99.1762 74.6818 98.8422 74.1842L98.3004 73.3772C97.9672 72.8792 97.1631 72.7695 96.5045 73.132C96.504 73.1323 96.5034 73.1326 96.5031 73.1328Z" fill="#3A556A"/>
<path d="M91.5922 75.7892C90.9342 76.1531 90.6718 76.8508 91.006 77.3485L91.5478 78.1555C91.8827 78.6526 92.6874 78.7604 93.3449 78.3969C94.0012 78.0339 94.2635 77.3377 93.931 76.8408L93.3892 76.0337C93.0553 75.5359 92.251 75.4263 91.5922 75.7892Z" fill="#3A556A"/>
<path d="M86.6815 78.4455C86.0234 78.8094 85.7611 79.5072 86.0952 80.0049L86.6371 80.812C86.9719 81.309 87.7766 81.4169 88.4341 81.0533C89.0905 80.6903 89.3527 79.9941 89.0202 79.4971L88.4784 78.6901C88.1445 78.1922 87.3402 78.0827 86.6815 78.4455Z" fill="#3A556A"/>
<path d="M81.7711 81.1018C81.113 81.4657 80.8507 82.1634 81.1848 82.6612L81.7267 83.4682C82.0615 83.9652 82.8662 84.0731 83.5237 83.7095C84.1801 83.3466 84.4423 82.6503 84.1098 82.1534L83.568 81.3464C83.2338 80.8487 82.4295 80.7392 81.7711 81.1018Z" fill="#3A556A"/>
<path d="M76.8588 83.7589C76.2007 84.122 75.9379 84.8197 76.2719 85.3172L76.2726 85.3183L76.8144 86.1253C77.1493 86.6224 77.954 86.7303 78.6115 86.3667C79.2678 86.0037 79.5301 85.3075 79.1976 84.8105L78.6558 84.0035C78.3219 83.5056 77.5176 83.396 76.8588 83.7589Z" fill="#3A556A"/>
<path d="M71.9495 86.4145C71.2914 86.7776 71.0286 87.4753 71.3626 87.9728L71.3633 87.9738L71.9051 88.7809C72.24 89.2779 73.0447 89.3858 73.7022 89.0222C74.3586 88.6592 74.6208 87.963 74.2883 87.4661L73.7465 86.6591C73.4123 86.1613 72.608 86.0518 71.9495 86.4145Z" fill="#3A556A"/>
</svg>
