<svg width="187" height="110" viewBox="0 0 187 110" fill="none" xmlns="http://www.w3.org/2000/svg">
<path d="M109.316 40.4271C109.316 41.0277 109.174 41.5944 108.891 42.1271C108.607 42.6597 108.154 43.0961 107.531 43.4361C106.907 43.7647 106.108 43.9291 105.134 43.9291H102.992V48.7231H101.054V36.9081H105.134C106.04 36.9081 106.805 37.0667 107.429 37.3841C108.063 37.6901 108.534 38.1094 108.84 38.6421C109.157 39.1747 109.316 39.7697 109.316 40.4271ZM105.134 42.3481C105.87 42.3481 106.42 42.1837 106.783 41.8551C107.145 41.5151 107.327 41.0391 107.327 40.4271C107.327 39.1351 106.596 38.4891 105.134 38.4891H102.992V42.3481H105.134ZM113.102 36.1431V48.7231H111.164V36.1431H113.102ZM115 43.9971C115 43.0564 115.193 42.2234 115.578 41.4981C115.975 40.7727 116.508 40.2117 117.176 39.8151C117.856 39.4071 118.604 39.2031 119.42 39.2031C120.157 39.2031 120.797 39.3504 121.341 39.6451C121.897 39.9284 122.339 40.2854 122.667 40.7161V39.3561H124.622V48.7231H122.667V47.3291C122.339 47.7711 121.891 48.1394 121.324 48.4341C120.758 48.7288 120.112 48.8761 119.386 48.8761C118.582 48.8761 117.845 48.6721 117.176 48.2641C116.508 47.8448 115.975 47.2668 115.578 46.5301C115.193 45.7821 115 44.9377 115 43.9971ZM122.667 44.0311C122.667 43.3851 122.531 42.8241 122.259 42.3481C121.999 41.8721 121.653 41.5094 121.222 41.2601C120.792 41.0107 120.327 40.8861 119.828 40.8861C119.33 40.8861 118.865 41.0107 118.434 41.2601C118.004 41.4981 117.652 41.8551 117.38 42.3311C117.12 42.7957 116.989 43.3511 116.989 43.9971C116.989 44.6431 117.12 45.2097 117.38 45.6971C117.652 46.1844 118.004 46.5584 118.434 46.8191C118.876 47.0684 119.341 47.1931 119.828 47.1931C120.327 47.1931 120.792 47.0684 121.222 46.8191C121.653 46.5698 121.999 46.2071 122.259 45.7311C122.531 45.2437 122.667 44.6771 122.667 44.0311ZM135.6 39.3561L129.854 53.1261H127.848L129.752 48.5701L126.063 39.3561H128.222L130.857 46.4961L133.594 39.3561H135.6ZM104.913 62.9081C106.171 62.9081 107.27 63.1517 108.211 63.6391C109.163 64.1151 109.894 64.8064 110.404 65.7131C110.925 66.6084 111.186 67.6567 111.186 68.8581C111.186 70.0594 110.925 71.1021 110.404 71.9861C109.894 72.8701 109.163 73.5501 108.211 74.0261C107.27 74.4908 106.171 74.7231 104.913 74.7231H101.054V62.9081H104.913ZM104.913 73.1421C106.295 73.1421 107.355 72.7681 108.092 72.0201C108.828 71.2721 109.197 70.2181 109.197 68.8581C109.197 67.4867 108.828 66.4157 108.092 65.6451C107.355 64.8744 106.295 64.4891 104.913 64.4891H102.992V73.1421H104.913ZM121.691 69.8101C121.691 70.1614 121.669 70.4787 121.623 70.7621H114.466C114.523 71.5101 114.801 72.1108 115.299 72.5641C115.798 73.0174 116.41 73.2441 117.135 73.2441C118.178 73.2441 118.915 72.8078 119.345 71.9351H121.436C121.153 72.7964 120.637 73.5048 119.889 74.0601C119.153 74.6041 118.235 74.8761 117.135 74.8761C116.24 74.8761 115.435 74.6778 114.721 74.2811C114.019 73.8731 113.463 73.3064 113.055 72.5811C112.659 71.8444 112.46 70.9944 112.46 70.0311C112.46 69.0677 112.653 68.2234 113.038 67.4981C113.435 66.7614 113.985 66.1947 114.687 65.7981C115.401 65.4014 116.217 65.2031 117.135 65.2031C118.019 65.2031 118.807 65.3958 119.498 65.7811C120.19 66.1664 120.728 66.7104 121.113 67.4131C121.499 68.1044 121.691 68.9034 121.691 69.8101ZM119.668 69.1981C119.657 68.4841 119.402 67.9117 118.903 67.4811C118.405 67.0504 117.787 66.8351 117.05 66.8351C116.382 66.8351 115.809 67.0504 115.333 67.4811C114.857 67.9004 114.574 68.4727 114.483 69.1981H119.668ZM134.937 65.2031C135.674 65.2031 136.331 65.3561 136.909 65.6621C137.499 65.9681 137.958 66.4214 138.286 67.0221C138.626 67.6228 138.796 68.3481 138.796 69.1981V74.7231H136.875V69.4871C136.875 68.6484 136.666 68.0081 136.246 67.5661C135.827 67.1127 135.255 66.8861 134.529 66.8861C133.804 66.8861 133.226 67.1127 132.795 67.5661C132.376 68.0081 132.166 68.6484 132.166 69.4871V74.7231H130.245V69.4871C130.245 68.6484 130.036 68.0081 129.616 67.5661C129.197 67.1127 128.625 66.8861 127.899 66.8861C127.174 66.8861 126.596 67.1127 126.165 67.5661C125.746 68.0081 125.536 68.6484 125.536 69.4871V74.7231H123.598V65.3561H125.536V66.4271C125.854 66.0417 126.256 65.7414 126.743 65.5261C127.231 65.3108 127.752 65.2031 128.307 65.2031C129.055 65.2031 129.724 65.3618 130.313 65.6791C130.903 65.9964 131.356 66.4554 131.673 67.0561C131.957 66.4894 132.399 66.0417 132.999 65.7131C133.6 65.3731 134.246 65.2031 134.937 65.2031ZM145.326 74.8761C144.442 74.8761 143.643 74.6778 142.929 74.2811C142.215 73.8731 141.654 73.3064 141.246 72.5811C140.838 71.8444 140.634 70.9944 140.634 70.0311C140.634 69.0791 140.843 68.2347 141.263 67.4981C141.682 66.7614 142.254 66.1947 142.98 65.7981C143.705 65.4014 144.515 65.2031 145.411 65.2031C146.306 65.2031 147.116 65.4014 147.842 65.7981C148.567 66.1947 149.139 66.7614 149.559 67.4981C149.978 68.2347 150.188 69.0791 150.188 70.0311C150.188 70.9831 149.972 71.8274 149.542 72.5641C149.111 73.3008 148.522 73.8731 147.774 74.2811C147.037 74.6778 146.221 74.8761 145.326 74.8761ZM145.326 73.1931C145.824 73.1931 146.289 73.0741 146.72 72.8361C147.162 72.5981 147.519 72.2411 147.791 71.7651C148.063 71.2891 148.199 70.7111 148.199 70.0311C148.199 69.3511 148.068 68.7787 147.808 68.3141C147.547 67.8381 147.201 67.4811 146.771 67.2431C146.34 67.0051 145.875 66.8861 145.377 66.8861C144.878 66.8861 144.413 67.0051 143.983 67.2431C143.563 67.4811 143.229 67.8381 142.98 68.3141C142.73 68.7787 142.606 69.3511 142.606 70.0311C142.606 71.0397 142.861 71.8218 143.371 72.3771C143.892 72.9211 144.544 73.1931 145.326 73.1931Z" fill="#686D77"/>
<g filter="url(#filter0_d_1_570)">
<ellipse cx="55.435" cy="40.0462" rx="24.5305" ry="24.4" fill="#DF6951"/>
</g>
<path d="M62.9829 41.4538L52.3688 47.5493L52.3688 35.3583L62.9829 41.4538Z" fill="white"/>
<defs>
<filter id="filter0_d_1_570" x="0.904541" y="0.646149" width="109.061" height="108.8" filterUnits="userSpaceOnUse" color-interpolation-filters="sRGB">
<feFlood flood-opacity="0" result="BackgroundImageFix"/>
<feColorMatrix in="SourceAlpha" type="matrix" values="0 0 0 0 0 0 0 0 0 0 0 0 0 0 0 0 0 0 127 0" result="hardAlpha"/>
<feOffset dy="15"/>
<feGaussianBlur stdDeviation="15"/>
<feColorMatrix type="matrix" values="0 0 0 0 0.87451 0 0 0 0 0.411765 0 0 0 0 0.317647 0 0 0 0.3 0"/>
<feBlend mode="normal" in2="BackgroundImageFix" result="effect1_dropShadow_1_570"/>
<feBlend mode="normal" in="SourceGraphic" in2="effect1_dropShadow_1_570" result="shape"/>
</filter>
</defs>
</svg>
